HIERARCHY
ROOT Hips
{
	OFFSET 0.000000 121.760803 0.000000
	CHANNELS 6 Xposition Yposition Zposition Xrotation Yrotation Zrotation 
	JOINT Spine
	{
		OFFSET 0.072000 7.257294 -0.789700
		CHANNELS 3 Xrotation Yrotation Zrotation
		JOINT Spine1
		{
			OFFSET 0.000000 12.508769 -0.658067
			CHANNELS 3 Xrotation Yrotation Zrotation
			JOINT Spine1_split
			{
				OFFSET 0.000000 12.508769 -0.658067
				CHANNELS 3 Xrotation Yrotation Zrotation
				JOINT Spine2
				{
					OFFSET 0.000000 12.508769 -0.658067
					CHANNELS 3 Xrotation Yrotation Zrotation
					JOINT Neck
					{
						OFFSET 0.000000 14.033295 7.520400
						CHANNELS 3 Xrotation Yrotation Zrotation
						JOINT Head
						{
							OFFSET 0.000000 8.198502 5.703100
							CHANNELS 3 Xrotation Yrotation Zrotation
							JOINT HeadTop_End
							{
								OFFSET 0.000000 17.760803 13.332701
								CHANNELS 3 Xrotation Yrotation Zrotation
								End Site
								{
									OFFSET 0.000000 0.000000 0.000000
								}
							}
						}
					}
					JOINT LeftShoulder
					{
						OFFSET 6.292450 5.785301 -0.669000
						CHANNELS 3 Xrotation Yrotation Zrotation
						JOINT LeftShoulder_split
						{
							OFFSET 6.292450 5.785301 -0.669000
							CHANNELS 3 Xrotation Yrotation Zrotation
							JOINT LeftArm
							{
								OFFSET 13.907140 -6.093903 1.965100
								CHANNELS 3 Xrotation Yrotation Zrotation
								JOINT LeftForeArm
								{
									OFFSET 34.140198 0.000000 0.000000
									CHANNELS 3 Xrotation Yrotation Zrotation
									JOINT LeftHand
									{
										OFFSET 40.960209 0.000000 0.000000
										CHANNELS 3 Xrotation Yrotation Zrotation
										JOINT LeftHandThumb1
										{
											OFFSET 10.006996 -7.170425 9.573125
											CHANNELS 3 Xrotation Yrotation Zrotation
											JOINT LeftHandThumb2
											{
												OFFSET 1.835007 -1.059448 1.059443
												CHANNELS 3 Xrotation Yrotation Zrotation
												JOINT LeftHandThumb3
												{
													OFFSET 2.112267 -1.219513 1.219518
													CHANNELS 3 Xrotation Yrotation Zrotation
													JOINT LeftHandThumb4
													{
														OFFSET 4.843811 -2.796570 2.796576
														CHANNELS 3 Xrotation Yrotation Zrotation
														End Site
														{
															OFFSET 0.000000 0.000000 0.000000
														}
													}
												}
											}
										}
										JOINT LeftHandIndex1
										{
											OFFSET 18.389847 -0.922348 4.596882
											CHANNELS 3 Xrotation Yrotation Zrotation
											JOINT LeftHandIndex2
											{
												OFFSET 4.711273 0.000000 0.000000
												CHANNELS 3 Xrotation Yrotation Zrotation
												JOINT LeftHandIndex3
												{
													OFFSET 2.886131 0.000000 0.000000
													CHANNELS 3 Xrotation Yrotation Zrotation
													JOINT LeftHandIndex4
													{
														OFFSET 6.145912 0.000000 0.000000
														CHANNELS 3 Xrotation Yrotation Zrotation
														End Site
														{
															OFFSET 0.000000 0.000000 0.000000
														}
													}
												}
											}
										}
										JOINT LeftHandMiddle1
										{
											OFFSET 18.013008 0.000000 0.000000
											CHANNELS 3 Xrotation Yrotation Zrotation
											JOINT LeftHandMiddle2
											{
												OFFSET 4.946693 0.000000 0.000000
												CHANNELS 3 Xrotation Yrotation Zrotation
												JOINT LeftHandMiddle3
												{
													OFFSET 3.342232 0.000000 0.000000
													CHANNELS 3 Xrotation Yrotation Zrotation
													JOINT LeftHandMiddle4
													{
														OFFSET 4.461754 0.000000 0.000000
														CHANNELS 3 Xrotation Yrotation Zrotation
														End Site
														{
															OFFSET 0.000000 0.000000 0.000000
														}
													}
												}
											}
										}
										JOINT LeftHandRing1
										{
											OFFSET 15.849892 -0.102921 -4.126150
											CHANNELS 3 Xrotation Yrotation Zrotation
											JOINT LeftHandRing2
											{
												OFFSET 3.527054 0.000000 0.000000
												CHANNELS 3 Xrotation Yrotation Zrotation
												JOINT LeftHandRing3
												{
													OFFSET 2.961098 0.000000 0.000000
													CHANNELS 3 Xrotation Yrotation Zrotation
													JOINT LeftHandRing4
													{
														OFFSET 4.927200 0.000000 0.000000
														CHANNELS 3 Xrotation Yrotation Zrotation
														End Site
														{
															OFFSET 0.000000 0.000000 0.000000
														}
													}
												}
											}
										}
										JOINT LeftHandPinky1
										{
											OFFSET 12.791824 -0.832031 -6.799156
											CHANNELS 3 Xrotation Yrotation Zrotation
											JOINT LeftHandPinky2
											{
												OFFSET 3.327133 0.000000 0.000000
												CHANNELS 3 Xrotation Yrotation Zrotation
												JOINT LeftHandPinky3
												{
													OFFSET 3.014900 0.000000 0.000000
													CHANNELS 3 Xrotation Yrotation Zrotation
													JOINT LeftHandPinky4
													{
														OFFSET 5.847786 0.000000 0.000000
														CHANNELS 3 Xrotation Yrotation Zrotation
														End Site
														{
															OFFSET 0.000000 0.000000 0.000000
														}
													}
												}
											}
										}
									}
								}
							}
						}
					}
					JOINT RightShoulder
					{
						OFFSET -6.292450 5.785301 -0.669000
						CHANNELS 3 Xrotation Yrotation Zrotation
						JOINT RightShoulder_split
						{
							OFFSET -6.292450 5.785301 -0.669000
							CHANNELS 3 Xrotation Yrotation Zrotation
							JOINT RightArm
							{
								OFFSET -13.907140 -6.093903 1.965100
								CHANNELS 3 Xrotation Yrotation Zrotation
								JOINT RightForeArm
								{
									OFFSET -34.140198 0.000000 0.000000
									CHANNELS 3 Xrotation Yrotation Zrotation
									JOINT RightHand
									{
										OFFSET -40.960209 0.000000 0.000000
										CHANNELS 3 Xrotation Yrotation Zrotation
										JOINT RightHandThumb1
										{
											OFFSET -10.007050 -7.170456 9.573117
											CHANNELS 3 Xrotation Yrotation Zrotation
											JOINT RightHandThumb2
											{
												OFFSET -1.835007 -1.059448 1.059443
												CHANNELS 3 Xrotation Yrotation Zrotation
												JOINT RightHandThumb3
												{
													OFFSET -2.112267 -1.219513 1.219518
													CHANNELS 3 Xrotation Yrotation Zrotation
													JOINT RightHandThumb4
													{
														OFFSET -4.843834 -2.796585 2.796590
														CHANNELS 3 Xrotation Yrotation Zrotation
														End Site
														{
															OFFSET 0.000000 0.000000 0.000000
														}
													}
												}
											}
										}
										JOINT RightHandIndex1
										{
											OFFSET -18.389870 -0.922424 4.596786
											CHANNELS 3 Xrotation Yrotation Zrotation
											JOINT RightHandIndex2
											{
												OFFSET -4.711273 0.000000 0.000000
												CHANNELS 3 Xrotation Yrotation Zrotation
												JOINT RightHandIndex3
												{
													OFFSET -2.886131 0.000000 0.000000
													CHANNELS 3 Xrotation Yrotation Zrotation
													JOINT RightHandIndex4
													{
														OFFSET -6.145920 0.000000 0.000000
														CHANNELS 3 Xrotation Yrotation Zrotation
														End Site
														{
															OFFSET 0.000000 0.000000 0.000000
														}
													}
												}
											}
										}
										JOINT RightHandMiddle1
										{
											OFFSET -18.013008 0.000000 0.000000
											CHANNELS 3 Xrotation Yrotation Zrotation
											JOINT RightHandMiddle2
											{
												OFFSET -4.946693 0.000000 0.000000
												CHANNELS 3 Xrotation Yrotation Zrotation
												JOINT RightHandMiddle3
												{
													OFFSET -3.342232 0.000000 0.000000
													CHANNELS 3 Xrotation Yrotation Zrotation
													JOINT RightHandMiddle4
													{
														OFFSET -4.461754 0.000000 0.000000
														CHANNELS 3 Xrotation Yrotation Zrotation
														End Site
														{
															OFFSET 0.000000 0.000000 0.000000
														}
													}
												}
											}
										}
										JOINT RightHandRing1
										{
											OFFSET -15.849876 -0.102936 -4.126237
											CHANNELS 3 Xrotation Yrotation Zrotation
											JOINT RightHandRing2
											{
												OFFSET -3.527054 0.000000 0.000000
												CHANNELS 3 Xrotation Yrotation Zrotation
												JOINT RightHandRing3
												{
													OFFSET -2.961098 0.000000 0.000000
													CHANNELS 3 Xrotation Yrotation Zrotation
													JOINT RightHandRing4
													{
														OFFSET -4.927200 0.000000 0.000000
														CHANNELS 3 Xrotation Yrotation Zrotation
														End Site
														{
															OFFSET 0.000000 0.000000 0.000000
														}
													}
												}
											}
										}
										JOINT RightHandPinky1
										{
											OFFSET -12.791786 -0.832077 -6.799222
											CHANNELS 3 Xrotation Yrotation Zrotation
											JOINT RightHandPinky2
											{
												OFFSET -3.327133 0.000000 0.000000
												CHANNELS 3 Xrotation Yrotation Zrotation
												JOINT RightHandPinky3
												{
													OFFSET -3.014900 0.000000 0.000000
													CHANNELS 3 Xrotation Yrotation Zrotation
													JOINT RightHandPinky4
													{
														OFFSET -5.847786 0.000000 0.000000
														CHANNELS 3 Xrotation Yrotation Zrotation
														End Site
														{
															OFFSET 0.000000 0.000000 0.000000
														}
													}
												}
											}
										}
									}
								}
							}
						}
					}
				}
			}
		}
	}
	JOINT LeftUpLeg
	{
		OFFSET 13.026900 -6.336304 -1.092800
		CHANNELS 3 Xrotation Yrotation Zrotation
		JOINT LeftLeg
		{
			OFFSET 0.524474 -46.096886 9.782700
			CHANNELS 3 Xrotation Yrotation Zrotation
			JOINT LeftFoot
			{
				OFFSET -0.524474 -53.427422 -12.948200
				CHANNELS 3 Xrotation Yrotation Zrotation
				JOINT LeftToeBase
				{
					OFFSET 0.192200 -14.009700 16.364100
					CHANNELS 3 Xrotation Yrotation Zrotation
					JOINT LeftToe_End
					{
						OFFSET -1.784700 -0.561700 9.474800
						CHANNELS 3 Xrotation Yrotation Zrotation
						End Site
						{
							OFFSET 0.000000 0.000000 0.000000
						}
					}
				}
			}
		}
	}
	JOINT RightUpLeg
	{
		OFFSET -12.883000 -6.336304 -1.092800
		CHANNELS 3 Xrotation Yrotation Zrotation
		JOINT RightLeg
		{
			OFFSET -0.524587 -46.096825 9.782800
			CHANNELS 3 Xrotation Yrotation Zrotation
			JOINT RightFoot
			{
				OFFSET 0.524587 -53.427383 -12.948300
				CHANNELS 3 Xrotation Yrotation Zrotation
				JOINT RightToeBase
				{
					OFFSET -0.192200 -14.009700 16.364100
					CHANNELS 3 Xrotation Yrotation Zrotation
					JOINT RightToe_End
					{
						OFFSET 1.784700 -0.561700 9.474800
						CHANNELS 3 Xrotation Yrotation Zrotation
						End Site
						{
							OFFSET 0.000000 0.000000 0.000000
						}
					}
				}
			}
		}
	}
}
MOTION
Frames: 4
Frame Time: 0.016667
1.453093 95.090408 38.480080 11.339573 -0.585280 -7.856093 9.933107 1.503355 10.039282 2.029114 -0.047010 0.508498 0.000000 0.000000 0.000000 4.987205 -0.052526 0.186542 -3.841292 -0.341669 -0.277917 -16.135762 0.809280 -3.139613 -0.000000 -0.000000 0.000000 0.557753 -4.314608 -11.777486 0.000000 0.000000 0.000000 13.923810 -4.816969 -56.121380 89.637497 -89.379637 89.618373 3.946661 -2.534488 11.903170 -0.820502 6.623763 -5.864590 14.168494 15.386731 18.402799 -0.847676 -39.830446 12.903382 -0.000003 0.000000 -0.000000 9.947273 5.735748 -90.836264 4.054226 5.569230 -72.086411 5.462409 5.838161 -86.184795 0.000001 -0.000001 0.000002 4.883444 8.107984 -80.603363 4.657612 5.728455 -78.210795 3.078733 5.154604 -61.676089 -0.000001 0.000001 0.000001 2.753108 7.678686 -78.443514 5.946875 5.850279 -90.939864 3.878857 5.509738 -70.270154 0.000001 0.000001 -0.000001 7.311308 13.596502 -78.537244 4.413849 5.672396 -75.756954 4.171590 5.605654 -73.291953 0.000002 -0.000001 0.000000 0.567969 4.488693 11.813867 0.000000 0.000000 0.000000 -16.187046 25.518748 44.451175 -0.177270 90.272677 0.177920 7.843980 11.318560 -12.809352 5.535780 -3.771045 -3.032811 2.457516 -9.078658 -15.939566 -8.950794 17.083963 -15.511816 0.000000 -0.000001 0.000000 -3.723520 -3.298331 73.104983 3.463116 -4.501827 75.128488 2.055840 -3.864257 56.013896 0.000001 0.000000 0.000001 -3.073214 -4.980227 74.622344 3.766066 -4.571283 78.956994 3.246672 -4.438873 72.351941 0.000003 -0.000000 0.000001 -3.819531 -5.359650 78.849534 3.124229 -4.398159 70.762836 2.797498 -4.270498 66.441860 -0.000001 0.000001 -0.000000 -1.443999 -6.451690 84.219538 3.515531 -4.515362 75.795074 1.230068 -3.155324 42.587189 -0.000002 0.000003 -0.000003 -65.422742 -7.032533 8.373013 124.539115 4.848233 0.136908 16.771280 0.137046 -1.845337 -0.230043 0.000002 0.000001 -0.000000 0.000000 0.000000 -41.687783 -13.510264 7.884104 59.507723 -0.278951 1.049765 -28.576989 2.612952 -7.781188 1.449351 -0.000002 -0.000001 0.000000 0.000000 0.000000 
1.615921 94.449417 46.446388 12.146970 -1.639079 -6.953204 10.732894 3.148717 8.597614 2.512566 0.388421 -0.101538 0.000000 0.000000 0.000000 5.375359 0.319863 -0.444561 -4.070067 -0.572482 0.096463 -17.422071 0.090383 -1.909408 -0.000000 0.000000 0.000000 0.550769 -4.131758 -11.649550 0.000000 0.000000 0.000000 15.857063 -4.083521 -55.500526 0.000098 -84.180866 0.000087 -0.007470 -3.522501 9.556841 -0.816966 6.649068 -5.842821 14.164837 15.374464 18.442513 -0.841110 -39.967422 12.911027 -0.000006 0.000000 0.000001 10.008330 5.729150 -90.997941 4.064128 5.572419 -72.188488 5.480210 5.839332 -86.359655 0.000001 -0.000001 -0.000001 4.897397 8.110478 -80.744010 4.669137 5.730851 -78.326287 3.089612 5.160421 -61.797059 0.000002 -0.000001 0.000001 2.740974 7.681196 -78.578929 5.961410 5.850024 -91.082465 3.892308 5.514537 -70.410043 0.000001 0.000002 -0.000000 7.299123 13.584415 -78.671854 4.424735 5.675140 -75.867084 4.185916 5.609923 -73.438467 -0.000002 -0.000002 0.000001 0.473743 5.340372 11.212079 0.000000 0.000000 0.000000 -18.532574 23.013680 45.080734 0.002950 92.047311 -0.003092 6.621897 11.435203 -18.486752 5.528095 -3.804568 -3.069136 2.442964 -9.034361 -15.978966 -8.976935 17.201020 -15.498565 -0.000003 0.000002 -0.000000 -3.685725 -3.342023 73.312361 3.475268 -4.504997 75.283103 2.065110 -3.870506 56.151651 -0.000003 -0.000002 0.000000 -3.084182 -5.003715 74.836532 3.779366 -4.573871 79.123951 3.261400 -4.443538 72.542442 -0.000001 0.000002 0.000002 -3.868914 -5.381830 79.076761 3.134959 -4.401881 70.902691 2.810285 -4.276035 66.613298 0.000001 -0.000002 0.000001 -1.521166 -6.464699 84.494788 3.527872 -4.518455 75.951840 1.235252 -3.160956 42.681616 0.000001 0.000001 -0.000001 -81.972433 -7.723237 8.863726 122.450306 4.127179 -1.257593 12.873955 0.043747 0.384772 0.255887 0.000001 -0.000003 0.000001 -0.000000 -0.000001 -37.222185 -12.264796 8.530450 60.149508 -0.780835 0.164956 -32.960137 2.924936 -7.605612 0.143623 -0.024443 1.283282 -0.000000 -0.000000 -0.000000 
1.726448 94.581680 53.979813 12.482934 -2.266371 -5.933799 11.487323 4.359955 6.933297 2.983594 0.736435 -0.674760 0.000000 0.000000 0.000000 5.744155 0.609384 -1.028370 -3.883329 -0.735807 0.343319 -18.155244 -0.681946 -0.632056 -0.000000 0.000000 -0.000000 0.538971 -4.141282 -11.327449 0.000000 0.000000 0.000000 18.370859 -3.661176 -55.120870 0.000138 -80.178839 0.000128 -2.644604 -4.276818 7.635053 -0.807184 6.718944 -5.782613 14.154857 15.340513 18.552319 -0.825564 -40.346242 12.932255 -0.000004 -0.000001 -0.000001 10.177096 5.709218 -91.444854 4.091553 5.581111 -72.470711 5.529390 5.842252 -86.843055 0.000000 0.000001 -0.000001 4.935993 8.117128 -81.132907 4.701043 5.737315 -78.645701 3.119736 5.176407 -62.131437 0.000000 -0.000002 0.000002 2.707401 7.688519 -78.953319 6.001583 5.849125 -91.476717 3.929511 5.527576 -70.796762 0.000001 0.000002 -0.000002 7.265163 13.551544 -79.043956 4.454867 5.682608 -76.171608 4.225559 5.621498 -73.843593 -0.000000 -0.000001 0.000000 0.447447 5.899441 10.987411 0.000000 0.000000 0.000000 -20.430614 18.612564 45.715201 0.000753 95.070646 -0.000726 7.385903 12.237841 -22.965987 5.508435 -3.890101 -3.161983 2.405764 -8.921139 -16.079558 -9.044116 17.500085 -15.464376 -0.000001 -0.000001 0.000001 -3.588219 -3.452424 73.842589 3.506348 -4.513035 75.678175 2.088926 -3.886328 56.503706 -0.000001 0.000000 -0.000000 -3.111901 -5.064225 75.383869 3.813419 -4.580261 79.550544 3.299184 -4.455185 73.029312 -0.000001 -0.000002 -0.000000 -3.994941 -5.440467 79.657238 3.162426 -4.411279 71.260033 2.843019 -4.290003 67.051421 0.000001 0.000003 -0.000004 -1.718441 -6.501700 85.197874 3.559456 -4.526227 76.352383 1.248611 -3.175354 42.922934 -0.000003 -0.000001 -0.000000 -92.020277 -6.523904 9.770458 116.076797 1.776628 -2.683843 6.447955 -0.119676 0.673674 1.925029 0.000001 0.000001 0.000003 -0.000000 0.000000 -31.568564 -10.744797 9.102410 58.809022 0.028406 -0.679018 -36.257608 1.308607 -7.971954 -0.787356 -0.055278 1.923559 -0.000000 -0.000000 -0.000000 
1.818514 95.242134 60.879890 12.172924 -2.539954 -5.399837 12.028148 5.315433 5.704564 3.317694 1.004297 -1.066091 0.000000 0.000000 0.000000 5.969669 0.834222 -1.426133 -3.184218 -0.852758 0.456090 -17.958343 -1.476783 0.463308 0.000001 0.000000 -0.000000 0.522144 -4.229545 -10.713363 0.000000 0.000000 0.000000 21.185297 -3.140019 -55.477580 0.000024 -77.628269 0.000021 -2.809215 -4.161630 6.201268 -0.792420 6.824519 -5.691687 14.139999 15.289247 18.718255 -0.799464 -40.918649 12.965687 -0.000001 0.000001 -0.000000 10.431870 5.674559 -92.119581 4.133074 5.593988 -72.897106 5.603753 5.845829 -87.573284 -0.000003 0.000003 -0.000001 4.994385 8.126714 -81.720345 4.749340 5.746753 -79.128267 3.165406 5.200189 -62.636564 0.000000 0.000001 -0.000001 2.656603 7.700854 -79.518811 6.062265 5.847275 -92.072173 3.985899 5.546797 -71.381009 -0.000004 -0.000002 0.000002 7.213191 13.503607 -79.606087 4.500471 5.693580 -76.631663 4.285602 5.638447 -74.455605 -0.000000 0.000002 -0.000001 0.476049 6.147942 11.241232 0.000000 0.000000 0.000000 -21.265169 13.374090 46.275440 0.000182 97.989903 -0.000142 9.380805 14.068451 -25.678503 5.481890 -4.005299 -3.287313 2.355669 -8.768415 -16.214970 -9.135590 17.903025 -15.417532 -0.000001 -0.000003 -0.000000 -3.454681 -3.598512 74.557799 3.548275 -4.523505 76.210677 2.121172 -3.907420 56.978254 -0.000006 0.000000 -0.000000 -3.148546 -5.146993 76.121482 3.859357 -4.588460 80.125564 3.350254 -4.470419 73.685536 0.000003 -0.000001 0.000002 -4.164339 -5.524038 80.439104 3.199508 -4.423645 71.741705 2.887281 -4.308439 67.641938 0.000003 -0.000000 0.000002 -1.984442 -6.560239 86.144593 3.602097 -4.536342 76.892316 1.266691 -3.194643 43.248191 -0.000001 -0.000000 0.000001 -95.328035 -4.945824 10.288346 106.519887 -1.515144 -3.986387 -1.768283 0.037811 -1.989722 3.699711 -0.000002 0.000005 0.000002 0.000000 0.000000 -25.410180 -9.495170 9.760272 56.255231 1.109101 -1.486596 -37.078829 -1.063369 -8.011205 -2.866077 -0.123209 2.545890 0.000000 0.000000 -0.000000 
